<svg xmlns="http://www.w3.org/2000/svg" width="177.06" height="35" viewBox="0 0 177.06 35"><rect class="svg__rect" x="0" y="0" width="108.05" height="35" fill="#F7BD08"/><rect class="svg__rect" x="106.05" y="0" width="71.01" height="35" fill="#F68A1D"/><path class="svg__text" d="M17.33 22L14.22 22L14.22 13.47L17.14 13.47Q18.59 13.47 19.34 14.05Q20.10 14.63 20.10 15.78L20.10 15.78Q20.10 16.36 19.78 16.83Q19.47 17.30 18.86 17.56L18.86 17.56Q19.55 17.75 19.93 18.26Q20.31 18.78 20.31 19.51L20.31 19.51Q20.31 20.71 19.53 21.36Q18.76 22 17.33 22L17.33 22ZM15.70 18.15L15.70 20.82L17.35 20.82Q18.04 20.82 18.44 20.47Q18.83 20.13 18.83 19.51L18.83 19.51Q18.83 18.18 17.47 18.15L17.47 18.15L15.70 18.15ZM15.70 14.66L15.70 17.06L17.15 17.06Q17.84 17.06 18.23 16.75Q18.62 16.43 18.62 15.86L18.62 15.86Q18.62 15.23 18.26 14.95Q17.90 14.66 17.14 14.66L17.14 14.66L15.70 14.66ZM24.64 19.16L24.64 19.16L24.64 13.47L26.12 13.47L26.12 19.18Q26.12 20.03 26.55 20.48Q26.98 20.93 27.83 20.93L27.83 20.93Q29.54 20.93 29.54 19.13L29.54 19.13L29.54 13.47L31.02 13.47L31.02 19.17Q31.02 20.53 30.15 21.32Q29.28 22.12 27.83 22.12L27.83 22.12Q26.36 22.12 25.50 21.33Q24.64 20.55 24.64 19.16ZM37.15 22L35.67 22L35.67 13.47L37.15 13.47L37.15 22ZM47.32 22L41.96 22L41.96 13.47L43.44 13.47L43.44 20.82L47.32 20.82L47.32 22ZM53.12 14.66L50.49 14.66L50.49 13.47L57.25 13.47L57.25 14.66L54.59 14.66L54.59 22L53.12 22L53.12 14.66ZM68.47 22L66.99 22L66.99 13.47L72.41 13.47L72.41 14.66L68.47 14.66L68.47 17.20L71.90 17.20L71.90 18.38L68.47 18.38L68.47 22ZM76.30 18.00L76.30 18.00L76.30 17.52Q76.30 16.28 76.74 15.32Q77.18 14.37 77.99 13.86Q78.79 13.35 79.84 13.35Q80.88 13.35 81.68 13.85Q82.49 14.35 82.93 15.29Q83.37 16.23 83.38 17.48L83.38 17.48L83.38 17.96Q83.38 19.21 82.94 20.16Q82.51 21.10 81.70 21.61Q80.90 22.12 79.85 22.12L79.85 22.12Q78.81 22.12 78.00 21.61Q77.19 21.10 76.75 20.17Q76.30 19.23 76.30 18.00ZM77.78 17.46L77.78 17.96Q77.78 19.36 78.33 20.13Q78.88 20.90 79.85 20.90L79.85 20.90Q80.83 20.90 81.36 20.15Q81.89 19.40 81.89 17.96L81.89 17.96L81.89 17.51Q81.89 16.09 81.36 15.34Q80.82 14.58 79.84 14.58L79.84 14.58Q78.88 14.58 78.33 15.33Q77.79 16.09 77.78 17.46L77.78 17.46ZM89.32 22L87.84 22L87.84 13.47L90.84 13.47Q92.32 13.47 93.12 14.13Q93.92 14.79 93.92 16.05L93.92 16.05Q93.92 16.90 93.51 17.48Q93.10 18.06 92.36 18.37L92.36 18.37L94.27 21.92L94.27 22L92.69 22L90.97 18.71L89.32 18.71L89.32 22ZM89.32 14.66L89.32 17.52L90.85 17.52Q91.60 17.52 92.02 17.15Q92.44 16.77 92.44 16.11L92.44 16.11Q92.44 15.43 92.05 15.05Q91.66 14.68 90.89 14.66L90.89 14.66L89.32 14.66Z" fill="#FFFFFF"/><path class="svg__text" d="M122.57 22L120.24 22L120.24 13.60L122.19 13.60L125.90 18.07L125.90 13.60L128.23 13.60L128.23 22L126.28 22L122.57 17.52L122.57 22ZM140.14 22L133.39 22L133.39 13.60L139.98 13.60L139.98 15.44L135.75 15.44L135.75 16.85L139.48 16.85L139.48 18.63L135.75 18.63L135.75 20.17L140.14 20.17L140.14 22ZM144.51 17.80L144.51 17.80Q144.51 16.55 145.12 15.55Q145.72 14.56 146.78 14.00Q147.85 13.43 149.18 13.43L149.18 13.43Q150.51 13.43 151.57 14.00Q152.63 14.56 153.24 15.55Q153.85 16.55 153.85 17.80L153.85 17.80Q153.85 19.05 153.24 20.04Q152.63 21.04 151.57 21.60Q150.51 22.17 149.18 22.17L149.18 22.17Q147.85 22.17 146.78 21.60Q145.72 21.04 145.12 20.04Q144.51 19.05 144.51 17.80ZM146.91 17.80L146.91 17.80Q146.91 18.51 147.21 19.05Q147.51 19.60 148.03 19.90Q148.54 20.20 149.18 20.20L149.18 20.20Q149.82 20.20 150.33 19.90Q150.85 19.60 151.15 19.05Q151.44 18.51 151.44 17.80L151.44 17.80Q151.44 17.09 151.15 16.54Q150.85 16 150.33 15.70Q149.82 15.40 149.18 15.40L149.18 15.40Q148.54 15.40 148.03 15.70Q147.51 16 147.21 16.54Q146.91 17.09 146.91 17.80ZM157.99 21.24L157.99 21.24L158.77 19.49Q159.33 19.86 160.08 20.09Q160.82 20.32 161.54 20.32L161.54 20.32Q162.91 20.32 162.91 19.64L162.91 19.64Q162.91 19.28 162.52 19.11Q162.13 18.93 161.27 18.74L161.27 18.74Q160.32 18.53 159.68 18.30Q159.04 18.06 158.59 17.55Q158.14 17.03 158.14 16.16L158.14 16.16Q158.14 15.39 158.56 14.77Q158.97 14.15 159.81 13.79Q160.64 13.43 161.85 13.43L161.85 13.43Q162.68 13.43 163.48 13.62Q164.29 13.80 164.90 14.17L164.90 14.17L164.17 15.93Q162.97 15.28 161.84 15.28L161.84 15.28Q161.13 15.28 160.81 15.49Q160.49 15.70 160.49 16.04L160.49 16.04Q160.49 16.37 160.87 16.54Q161.25 16.71 162.10 16.89L162.10 16.89Q163.06 17.10 163.69 17.33Q164.32 17.56 164.79 18.07Q165.25 18.58 165.25 19.46L165.25 19.46Q165.25 20.21 164.83 20.83Q164.41 21.44 163.57 21.80Q162.73 22.17 161.53 22.17L161.53 22.17Q160.51 22.17 159.55 21.92Q158.59 21.67 157.99 21.24Z" fill="#FFFFFF" x="119.05"/></svg>